<svg width="363" height="168" viewBox="0 0 400 160" fill="none" xmlns="http://www.w3.org/2000/svg">
  <path d="M39.28 138.48C28.16 138.48 19.36 135.52 12.88 129.6C6.48 123.6 3.28 115.44 3.28 105.12C3.28 94.8 6.56 86.72 13.12 80.88C19.68 74.96 28.64 72 40 72C46.8 72 52.96 73.2 58.48 75.6C64 77.92 68.4 81.36 71.68 85.92L56.24 99.84C54.08 97.28 51.6 95.36 48.8 94.08C46.08 92.8 43.04 92.16 39.68 92.16C34.32 92.16 30.08 93.6 26.96 96.48C23.92 99.36 22.4 103.36 22.4 108.48C22.4 113.52 24 117.48 27.2 120.36C30.48 123.16 34.96 124.56 40.64 124.56C47.44 124.56 53.04 122.24 57.44 117.6L71.36 130.56C67.76 133.52 63.36 135.84 58.16 137.52C52.96 138.16 46.72 138.48 39.28 138.48Z" fill="#2B3148"/>
  <path d="M86.62 137.28V73.2H123.02C131.18 73.2 137.5 75.28 141.98 79.44C146.54 83.6 148.82 89.2 148.82 96.24C148.82 106.16 144.54 113.12 135.98 117.12L152.26 137.28H130.7L118.14 120.96H104.9V137.28H86.62ZM104.9 106.08H120.86C124.06 106.08 126.46 105.36 128.06 103.92C129.66 102.48 130.46 100.56 130.46 98.16C130.46 95.84 129.66 94 128.06 92.64C126.46 91.28 124.06 90.6 120.86 90.6H104.9V106.08Z" fill="#2B3148"/>
  <path d="M166.62 137.28V73.2H184.9V137.28H166.62Z" fill="#2B3148"/>
  <path d="M198.77 137.28V73.2H216.25L235.93 103.92L255.85 73.2H273.09V137.28H254.89V107.76L235.93 137.28H235.69L216.97 107.76V137.28H198.77Z" fill="#2B3148"/>
  <path d="M339.33 138.48C328.21 138.48 319.41 135.52 312.93 129.6C306.53 123.6 303.33 115.44 303.33 105.12C303.33 94.8 306.61 86.72 313.17 80.88C319.73 74.96 328.69 72 340.05 72C346.85 72 353.01 73.2 358.53 75.6C364.05 77.92 368.45 81.36 371.73 85.92L356.29 99.84C354.13 97.28 351.65 95.36 348.85 94.08C346.13 92.8 343.09 92.16 339.73 92.16C334.37 92.16 330.13 93.6 327.01 96.48C323.97 99.36 322.45 103.36 322.45 108.48C322.45 113.52 324.05 117.48 327.25 120.36C330.53 123.16 335.01 124.56 340.69 124.56C347.49 124.56 353.09 122.24 357.49 117.6L371.41 130.56C367.81 133.52 363.41 135.84 358.21 137.52C353.01 138.16 346.77 138.48 339.33 138.48Z" fill="#2B3148"/>
  <path d="M286.3 148.48C277.98 148.48 271.82 146.48 267.82 142.48C263.82 138.48 261.82 132.4 261.82 124.24V73.2H280.1V123.28C280.1 125.92 280.74 127.92 282.02 129.28C283.38 130.56 285.38 131.2 288.02 131.2C290.82 131.2 293.3 130.56 295.46 129.28L299.98 144.72C297.66 146 294.9 146.96 291.7 147.6C288.58 148.19 285.3 148.48 281.86 148.48H286.3Z" fill="#2B3148"/>
  <path d="M376.89 140.16C373.53 140.16 370.65 138.96 368.25 136.56C365.85 134.16 364.65 131.28 364.65 127.92C364.65 124.56 365.85 121.68 368.25 119.28C370.65 116.88 373.53 115.68 376.89 115.68C380.25 115.68 383.13 116.88 385.53 119.28C387.93 121.68 389.13 124.56 389.13 127.92C389.13 131.28 387.93 134.16 385.53 136.56C383.13 138.96 380.25 140.16 376.89 140.16Z" fill="#2B3148"/>
  <path d="M235.73 56.16C223.97 56.16 214.37 52.8 206.93 46.08C199.49 39.36 195.77 30.48 195.77 19.44C195.77 8.4 199.57 -0.48 207.17 -7.2C214.77 -13.92 224.53 -17.28 236.45 -17.28C243.89 -17.28 250.61 -16 256.61 -13.44C262.61 -10.88 267.49 -7.28 271.25 -2.64L254.29 12.24C251.97 9.52 249.25 7.52 246.13 6.24C243.09 4.96 239.57 4.32 235.57 4.32C229.65 4.32 224.85 5.92 221.17 9.12C217.57 12.24 215.77 16.56 215.77 22.08C215.77 27.52 217.65 31.84 221.41 35.04C225.17 38.16 230.29 39.72 236.77 39.72C244.29 39.72 250.53 37.2 255.49 32.16L270.77 46.56C266.77 49.76 261.89 52.24 256.13 54C250.37 55.44 243.65 56.16 235.73 56.16Z" fill="#2B3148"/>
  <circle cx="235.5" cy="63.5" r="9.5" fill="#2B3148"/>
</svg> 